<?xml version="1.0" standalone="no"?>
<!DOCTYPE svg PUBLIC "-//W3C//DTD SVG 20010904//EN"
 "http://www.w3.org/TR/2001/REC-SVG-20010904/DTD/svg10.dtd">
<svg version="1.0" xmlns="http://www.w3.org/2000/svg"
 width="2484.000000pt" height="704.000000pt" viewBox="0 0 2484.000000 704.000000"
 preserveAspectRatio="xMidYMid meet">

<g transform="translate(0.000000,704.000000) scale(0.100000,-0.100000)"
fill="#000000" stroke="none">
<path d="M23720 7016 c-36 -8 -87 -22 -114 -31 -27 -9 -2549 -1144 -5605
-2522 -3056 -1378 -5563 -2505 -5572 -2505 -9 0 -2527 1128 -5596 2506 -3068
1378 -5613 2515 -5653 2526 -107 31 -307 38 -421 15 -211 -42 -409 -164 -536
-330 -74 -96 -157 -268 -189 -390 -23 -91 -25 -113 -21 -250 4 -128 8 -162 31
-235 73 -226 228 -418 426 -528 53 -29 11487 -5165 11580 -5202 189 -74 498
-87 687 -29 62 19 11418 5131 11593 5219 185 93 326 241 416 436 93 201 109
452 42 658 -106 324 -331 548 -645 642 -108 32 -317 42 -423 20z"/>
</g>
</svg>
